<?xml version="1.0" encoding="utf-8"?>
<!-- Generator: Adobe Illustrator 26.4.1, SVG Export Plug-In . SVG Version: 6.00 Build 0)  -->
<svg version="1.1" id="Layer_1" xmlns="http://www.w3.org/2000/svg" xmlns:xlink="http://www.w3.org/1999/xlink" x="0px" y="0px"
	 viewBox="0 0 30 30" style="enable-background:new 0 0 30 30;" xml:space="preserve">
<style type="text/css">
	.st0{fill:#B3D2AE;}
</style>
<g>
	<path class="st0" d="M7,9.2c-0.7,0.4-1.2,1-1.6,1.7c-0.1,0.3,0,0.6,0.3,0.8c0.3,0.1,0.6,0,0.8-0.2c0.3-0.5,0.7-0.9,1.2-1.3
		C7.9,10,8,9.7,7.8,9.4C7.6,9.1,7.3,9,7,9.2z"/>
	<path class="st0" d="M20,21.1l-3-3c-0.2-0.2-0.6-0.2-0.8,0l-0.5,0.5l-0.8-0.8c2.5-3,2.2-7.5-0.8-10S6.6,5.6,4,8.6s-2.2,7.5,0.8,10
		c2.7,2.2,6.5,2.2,9.2,0l0.8,0.8l-0.5,0.5c-0.2,0.2-0.2,0.6,0,0.8l3,3c0.2,0.2,0.6,0.2,0.8,0L20,22C20.2,21.7,20.2,21.3,20,21.1z
		 M3.6,13.2c0-3.3,2.7-5.9,5.9-5.9s5.9,2.7,5.9,5.9s-2.7,5.9-5.9,5.9C6.2,19.2,3.6,16.5,3.6,13.2z M17.8,22.5l-2.1-2.1l0.9-0.9
		l2.1,2.1L17.8,22.5z"/>
</g>
</svg>
